<svg xmlns="http://www.w3.org/2000/svg" width="8" height="387"><path d="M4.434 386.031v-2.537h.72v2.537h-.72zm-2.548-11.284c-.56.125-1.12.399-1.12 1.051 0 .721.583 1.006 1.223 1.006.617 0 .812-.126 1.532-1.325.56-.938 1.028-1.577 2.206-1.577 1.2 0 2.149.64 2.149 1.92 0 1.349-.893 1.84-2.104 1.954l-.104-.766c.846-.104 1.486-.286 1.486-1.212 0-.663-.445-1.131-1.359-1.131-1.006 0-1.349.651-1.806 1.439-.515.88-.88 1.463-2 1.463-1.028 0-1.943-.686-1.943-1.771 0-1.074.766-1.6 1.726-1.794l.114.743zm2.068-9.935c.96 0 3.921-.034 3.921 2.114 0 2.172-2.938 2.114-3.921 2.114-1.257 0-3.909-.08-3.909-2.114 0-2.149 2.904-2.114 3.909-2.114zm0 3.428c2.058 0 3.2-.24 3.2-1.314 0-1.326-1.875-1.314-3.2-1.314-1.44 0-3.188-.034-3.188 1.314s2.068 1.314 3.188 1.314zm3.257-12.245c.4.492.664 1.132.664 1.771 0 1.966-2.378 2.309-3.898 2.309-1.429 0-3.932-.331-3.932-2.229 0-.857.526-1.485 1.223-1.908l.411.674c-.491.274-.914.675-.914 1.28 0 1.269 2.332 1.383 3.234 1.383 2.617 0 3.154-.766 3.154-1.52 0-.32-.137-.731-.354-.995H4.503v1.429h-.686v-2.194h3.394zm-3.257-9.02c.96 0 3.921-.034 3.921 2.114 0 2.172-2.938 2.114-3.921 2.114-1.257 0-3.909-.08-3.909-2.114 0-2.149 2.904-2.114 3.909-2.114zm0 3.428c2.058 0 3.2-.24 3.2-1.314 0-1.325-1.875-1.314-3.2-1.314-1.44 0-3.188-.034-3.188 1.314s2.068 1.314 3.188 1.314zm3.817-18.34v.766H.148v-1.657c0-1.349.72-2.103 2.023-2.103 1.417 0 2.206.8 2.206 1.852v1.143h3.394zm-4.08 0l-.011-1.074c-.012-.709-.549-1.12-1.509-1.12-.937 0-1.337.491-1.337 1.314v.88h2.857zM.148 323.91v-2.057c0-.755.651-1.703 2.023-1.703.937 0 1.829.377 2.148 1.314l3.268-1.577.332.686-3.543 1.714v.857h3.395v.766H.148zm3.543-.765v-1.12c0-.663-.492-1.074-1.52-1.074-.994 0-1.337.48-1.337 1.257v.938h2.857zm-2.857-9.341v1.028H.148v-2.834h.686v1.04h6.252v-1.04h.686v2.834h-.686v-1.028H.834zm-.686-7.32v-.96l6.412-2.263-.023-.022-1.703.034H.148v-.766h7.623v.96l-6.423 2.263.023.022 1.726-.034h4.674v.766H.148zm.686-10.54v1.646H.148v-4.023h.686v1.611h6.938v.767H.834zm0-8.896v1.028H.148v-2.834h.686v1.04h6.252v-1.04h.686v2.834h-.686v-1.028H.834zm-.686-7.319v-.96l6.412-2.263-.023-.022-1.703.034H.148v-.766h7.623v.96l-6.423 2.263.023.022 1.726-.034h4.674v.766H.148zm7.063-12.918c.4.492.664 1.132.664 1.771 0 1.966-2.378 2.309-3.898 2.309-1.429 0-3.932-.331-3.932-2.229 0-.857.526-1.485 1.223-1.908l.411.674c-.491.274-.914.675-.914 1.28 0 1.269 2.332 1.383 3.234 1.383 2.617 0 3.154-.766 3.154-1.52 0-.32-.137-.731-.354-.995H4.503v1.429h-.686v-2.194h3.394zM6.08 260.43v-1.051h1.691v1.051H6.08zm-5.932-7.501v-.767h3.2v-2.354h-3.2v-.766h7.623v.766H4.034v2.354h3.737v.767H.148zm3.806-12.976c.96 0 3.921-.034 3.921 2.114 0 2.172-2.938 2.114-3.921 2.114-1.257 0-3.909-.08-3.909-2.114 0-2.148 2.904-2.114 3.909-2.114zm0 3.429c2.058 0 3.2-.24 3.2-1.314 0-1.325-1.875-1.314-3.2-1.314-1.44 0-3.188-.034-3.188 1.314s2.068 1.314 3.188 1.314zm-.662-9.422v-.206L0 231.629l.389-.617 3.223 2.091 3.92-2.503.389.641-3.943 2.457v.263h3.794v.766H.148v-.766h3.144zm0-8.918v-.206L0 222.711l.389-.617 3.223 2.091 3.92-2.503.389.641-3.943 2.457v.263h3.794v.766H.148v-.766h3.144zm2.125-8.69l2.503.595-.205.753-7.566-1.932v-.914l7.566-1.932.205.755-2.503.594v2.081zM1.166 215.3v.023l3.566.846v-1.715l-3.566.846zm-.332-8.518v1.028H.148v-2.834h.686v1.04h6.252v-1.04h.686v2.834h-.686v-1.028H.834zm0-7.239H.148v-2.011c0-1.532.674-2.435 3.817-2.435 1.68 0 3.806.091 3.806 2.411v2.034h-.685v-.617H.834v.618zm6.252-1.383v-.628c0-.926-.24-1.635-3.12-1.635-2.903 0-3.132.777-3.132 1.451v.812h6.252zm-3.132-11.718c.96 0 3.921-.034 3.921 2.114 0 2.172-2.938 2.114-3.921 2.114-1.257 0-3.909-.08-3.909-2.114 0-2.148 2.904-2.114 3.909-2.114zm0 3.429c2.058 0 3.2-.24 3.2-1.314 0-1.326-1.875-1.314-3.2-1.314-1.44 0-3.188-.034-3.188 1.314s2.068 1.314 3.188 1.314zm2.126-9.708v-1.051h1.691v1.051H6.08zm-2.126-11.558c.96 0 3.921-.034 3.921 2.114 0 2.172-2.938 2.114-3.921 2.114-1.257 0-3.909-.08-3.909-2.114 0-2.148 2.904-2.114 3.909-2.114zm0 3.429c2.058 0 3.2-.24 3.2-1.314 0-1.325-1.875-1.314-3.2-1.314-1.44 0-3.188-.034-3.188 1.314s2.068 1.314 3.188 1.314zm3.817-8.199h-.685v-.617H.834v.617H.148v-2.331c0-.835.697-1.691 1.92-1.691.629 0 1.166.251 1.475.812.377-.857 1.028-1.166 1.943-1.166 1.588 0 2.285.868 2.285 1.92v2.456zm-4.491-2.068c0-.789-.411-1.154-1.211-1.154-.937 0-1.234.469-1.234 1.395v.445H3.28v-.686zm3.806-.355c0-.686-.503-1.154-1.611-1.154-1.132 0-1.509.561-1.509 1.36v.834h3.12v-1.04zm-6.252-8.141v1.028H.148v-2.834h.686v1.04h6.252v-1.04h.686v2.834h-.686v-1.028H.834zm-.686-7.364v-.767h3.2v-2.354h-3.2v-.766h7.623v.766H4.034v2.354h3.737v.767H.148zm.686-10.472v1.028H.148v-2.834h.686v1.04h6.252v-1.04h.686v2.834h-.686v-1.028H.834zm-.686-7.731v-2.057c0-.755.651-1.703 2.023-1.703.937 0 1.829.377 2.148 1.314l3.268-1.577.332.686-3.543 1.714v.857h3.395v.766H.148zm3.543-.766v-1.12c0-.663-.492-1.074-1.52-1.074-.994 0-1.337.48-1.337 1.257v.938h2.857zm.263-11.843c.96 0 3.921-.034 3.921 2.114 0 2.172-2.938 2.114-3.921 2.114-1.257 0-3.909-.08-3.909-2.114 0-2.148 2.904-2.114 3.909-2.114zm0 3.428c2.058 0 3.2-.24 3.2-1.314 0-1.326-1.875-1.314-3.2-1.314-1.44 0-3.188-.034-3.188 1.314s2.068 1.314 3.188 1.314zM1.886 89.356c-.56.125-1.12.399-1.12 1.051 0 .721.583 1.006 1.223 1.006.617 0 .812-.126 1.532-1.325.56-.938 1.028-1.577 2.206-1.577 1.2 0 2.149.64 2.149 1.92 0 1.349-.893 1.84-2.104 1.954l-.104-.766c.846-.104 1.486-.286 1.486-1.212 0-.663-.445-1.131-1.359-1.131-1.006 0-1.349.651-1.806 1.439-.515.88-.88 1.463-2 1.463-1.028 0-1.943-.686-1.943-1.771 0-1.074.766-1.6 1.726-1.794l.114.743zM.834 81.924v1.028H.148v-2.834h.686v1.04h6.252v-1.04h.686v2.834h-.686v-1.028H.834zm-.686-7.32v-.96l6.412-2.263-.023-.022-1.703.034H.148v-.766h7.623v.96L1.348 73.85l.023.022 1.726-.034h4.674v.766H.148zm6.481-13.042c.72.445 1.246 1.108 1.246 1.977 0 1.989-2.4 2.286-3.909 2.286-1.52 0-3.92-.297-3.92-2.286 0-.868.503-1.463 1.234-1.862l.389.651c-.48.239-.903.628-.903 1.211 0 1.395 2.194 1.486 3.2 1.486.994 0 3.188-.092 3.188-1.486 0-.594-.491-1.063-.96-1.349l.435-.628zM.148 56.414v-3.715h.686v2.949h2.515v-2.435h.686v2.435h3.052v-2.949h.686v3.715H.148zM6.08 46.387v-1.051h1.691v1.051H6.08zm-5.006-9.204l.537 1.395-.697.239-.914-2.4h7.086v-1.635h.686v4.32h-.686v-1.92H1.074zm5.509-7.764c.319-.354.571-.743.571-1.234 0-1.383-1.76-1.463-2.777-1.497.389.445.617.914.617 1.509 0 1.439-1.177 1.966-2.446 1.966-1.349 0-2.503-.721-2.503-2.184 0-1.977 2.377-2.091 3.829-2.091 1.555 0 4.001.194 4.001 2.274 0 .616-.24 1.233-.664 1.691l-.628-.434zM.766 28.024c0 .938.823 1.337 1.76 1.337.868 0 1.749-.251 1.749-1.279 0-.537-.377-1.018-.731-1.395-2.344.001-2.778.618-2.778 1.337zm-.618-7.055V17.06h.686v3.144h2.343c-.137-.378-.24-.731-.24-1.132 0-1.12.754-2.068 2.023-2.068.994 0 1.817.525 2.343 1.349.377.594.572 1.371.572 2.856h-.721c0-.948-.057-1.714-.332-2.229-.365-.686-1.063-1.177-1.862-1.177-.812 0-1.303.549-1.303 1.349 0 .479.183.857.4 1.269v.549H.148zm5.715-8.61L0 11.228l.206-.766 4.972.982V9.376H1.303V8.61h3.875v-.605h.686v.605h1.908v.766H5.863v2.983zM4.434 2.537V0h.72v2.537h-.72z" fill="#231815"/></svg>